<?xml version="1.0" encoding="utf-8"?>
<!-- Generator: Adobe Illustrator 19.0.1, SVG Export Plug-In . SVG Version: 6.00 Build 0)  -->
<svg version="1.1" id="Layer_1" xmlns="http://www.w3.org/2000/svg" xmlns:xlink="http://www.w3.org/1999/xlink" x="0px" y="0px"
	 viewBox="0 0 753.4 101.4" style="enable-background:new 0 0 753.4 101.4;" xml:space="preserve">
<style type="text/css">
	.st0{fill:#222;}
</style>
<path class="st0" d="M0,2.4h9.6v40.5h49.1V2.4h9.6V99h-9.6V52.4H9.6V99H0V2.4z"/>
<path class="st0" d="M131.4,2.4l45,96.5H166l-15.2-31.8h-41.6L94.2,99H83.4L129,2.4H131.4z M130.2,22.9l-16.5,34.9h33L130.2,22.9z"
	/>
<path class="st0" d="M191.4,99V2.4h2.1l64.2,74v-74h9.5V99h-2.2l-63.7-73.1V99H191.4z"/>
<path class="st0" d="M674,2.4l-50.2,42.3L574.1,2.4H572V11v79.9V99h2.1l49.9-42.6L674,99h2.1v-8.1V11V2.4H674z M582,80.7V20.3
	l36.4,30.4L582,80.7z M666.1,80.7l-36.2-30.1l36.2-30.4V80.7z"/>
<path class="st0" d="M289,99V2.4h20c14.4,0,24.9,1.2,31.4,3.5c9.4,3.3,16.7,9,21.9,17.1c5.3,8.1,7.9,17.7,7.9,28.9
	c0,9.7-2.1,18.2-6.3,25.5c-4.2,7.3-9.6,12.8-16.3,16.3c-6.7,3.5-16,5.2-28.1,5.2H289z M298.2,89.8h11.2c13.3,0,22.6-0.8,27.8-2.5
	c7.3-2.4,13-6.6,17.1-12.8c4.2-6.1,6.2-13.6,6.2-22.5c0-9.3-2.3-17.3-6.8-23.9c-4.5-6.6-10.8-11.1-18.8-13.6c-6-1.8-16-2.8-29.9-2.8
	h-6.8V89.8z"/>
<path class="st0" d="M379,81l8.2-4.9c5.8,10.6,12.4,15.9,20,15.9c3.2,0,6.3-0.8,9.1-2.3c2.8-1.5,5-3.5,6.5-6.1
	c1.5-2.5,2.2-5.2,2.2-8.1c0-3.2-1.1-6.4-3.3-9.5c-3-4.3-8.5-9.4-16.5-15.5c-8.1-6.1-13.1-10.5-15-13.2c-3.4-4.5-5.1-9.5-5.1-14.8
	c0-4.2,1-8,3-11.5c2-3.5,4.8-6.2,8.5-8.2c3.7-2,7.6-3,11.9-3c4.5,0,8.8,1.1,12.8,3.4c4,2.3,8.1,6.4,12.6,12.4l-7.9,6
	c-3.6-4.8-6.7-8-9.3-9.5c-2.6-1.5-5.3-2.3-8.4-2.3c-3.9,0-7.1,1.2-9.5,3.5c-2.5,2.4-3.7,5.3-3.7,8.7c0,2.1,0.4,4.1,1.3,6.1
	c0.9,2,2.5,4.1,4.8,6.4c1.3,1.2,5.4,4.4,12.5,9.6c8.4,6.2,14.1,11.7,17.2,16.5c3.1,4.8,4.7,9.6,4.7,14.5c0,7-2.7,13.1-8,18.2
	c-5.3,5.2-11.8,7.7-19.4,7.7c-5.9,0-11.2-1.6-15.9-4.7C387.4,93.6,383.1,88.3,379,81z"/>
<path class="st0" d="M501.9,0c14.6,0,26.9,4.9,36.7,14.6c9.9,9.8,14.8,21.8,14.8,36c0,14.1-4.9,26.1-14.7,36
	c-9.8,9.8-21.8,14.8-36,14.8c-14.3,0-26.4-4.9-36.2-14.7c-9.8-9.8-14.8-21.7-14.8-35.6c0-9.3,2.2-17.9,6.7-25.8
	c4.5-7.9,10.6-14.1,18.4-18.6C484.5,2.2,492.9,0,501.9,0z M502.3,9.4c-7.1,0-13.9,1.9-20.3,5.6c-6.4,3.7-11.4,8.7-15,15
	c-3.6,6.3-5.4,13.3-5.4,21.1c0,11.5,4,21.2,11.9,29.1c8,7.9,17.5,11.9,28.8,11.9c7.5,0,14.4-1.8,20.8-5.5
	c6.4-3.6,11.3-8.6,14.9-14.9c3.6-6.3,5.4-13.3,5.4-21c0-7.7-1.8-14.6-5.4-20.8c-3.6-6.2-8.6-11.2-15.1-14.9
	C516.5,11.2,509.6,9.4,502.3,9.4z"/>
<path class="st0" d="M698.1,2.4h55.3v9.4h-45.7v30.3H753v9.4h-45.3v37.9H753V99h-54.9V2.4z"/>
</svg>
